HIERARCHY
ROOT Hips
{
  OFFSET 5.84602e-005 68.8428 3.50346
  CHANNELS 6 Xposition Yposition Zposition Zrotation Xrotation Yrotation
  JOINT Spine
  {
    OFFSET 0 8.597 -4.6522
    CHANNELS 3 Zrotation Xrotation Yrotation
    JOINT Spine1
    {
      OFFSET 0 7.8454 0.4098
      CHANNELS 3 Zrotation Xrotation Yrotation
      JOINT Spine2
      {
        OFFSET 0 9.7078 -2.1609
        CHANNELS 3 Zrotation Xrotation Yrotation
        JOINT Neck
        {
          OFFSET 0 21.8761 -0.4549
          CHANNELS 3 Zrotation Xrotation Yrotation
          JOINT Head
          {
            OFFSET 0 12.3537 3.3602
            CHANNELS 3 Zrotation Xrotation Yrotation
            End Site
            {
              OFFSET 0.0001 18.9506 0.5657
            }
          }
        }
        JOINT LeftShoulder
        {
          OFFSET 2.2086 21.1115 7.2329
          CHANNELS 3 Zrotation Xrotation Yrotation
          JOINT LeftArm
          {
            OFFSET 13.1193 3.0282 -4.8998
            CHANNELS 3 Zrotation Xrotation Yrotation
            JOINT LeftForeArm
            {
              OFFSET 27.4081 -0.0973053 -0.2375
              CHANNELS 3 Zrotation Xrotation Yrotation
              JOINT LeftHand
              {
                OFFSET 22.8641 0.0662994 -0.1369
                CHANNELS 3 Zrotation Xrotation Yrotation
                JOINT LeftHandIndex1
                {
                  OFFSET 8.8614 0.775009 2.4612
                  CHANNELS 3 Zrotation Xrotation Yrotation
                  JOINT LeftHandIndex2
                  {
                    OFFSET 3.3146 -0.808304 0.5841
                    CHANNELS 3 Zrotation Xrotation Yrotation
                    JOINT LeftHandIndex3
                    {
                      OFFSET 2.2628 -0.552002 0.3989
                      CHANNELS 3 Zrotation Xrotation Yrotation
                      End Site
                      {
                        OFFSET 1.6102 -0.4807 0.2612
                      }
                    }
                  }
                }
                JOINT LeftHandMiddle1
                {
                  OFFSET 8.9937 0.895004 0.2143
                  CHANNELS 3 Zrotation Xrotation Yrotation
                  JOINT LeftHandMiddle2
                  {
                    OFFSET 4.0984 0.0113983 -0.0242
                    CHANNELS 3 Zrotation Xrotation Yrotation
                    JOINT LeftHandMiddle3
                    {
                      OFFSET 2.2716 0.00689697 -0.0138001
                      CHANNELS 3 Zrotation Xrotation Yrotation
                      End Site
                      {
                        OFFSET 2.0404 -0.1441 0.0027
                      }
                    }
                  }
                }
                JOINT LeftHandRing1
                {
                  OFFSET 8.5234 0.597198 -2.0164
                  CHANNELS 3 Zrotation Xrotation Yrotation
                  JOINT LeftHandRing2
                  {
                    OFFSET 3.7188 -0.188293 -0.2328
                    CHANNELS 3 Zrotation Xrotation Yrotation
                    JOINT LeftHandRing3
                    {
                      OFFSET 2.1191 -0.106598 -0.1332
                      CHANNELS 3 Zrotation Xrotation Yrotation
                      End Site
                      {
                        OFFSET 1.8737 -0.2304 -0.0886
                      }
                    }
                  }
                }
                JOINT LeftHandPinky1
                {
                  OFFSET 7.9094 -0.601089 -3.4825
                  CHANNELS 3 Zrotation Xrotation Yrotation
                  JOINT LeftHandPinky2
                  {
                    OFFSET 2.2874 -0.477005 -0.6314
                    CHANNELS 3 Zrotation Xrotation Yrotation
                    JOINT LeftHandPinky3
                    {
                      OFFSET 1.6774 -0.349396 -0.4633
                      CHANNELS 3 Zrotation Xrotation Yrotation
                      End Site
                      {
                        OFFSET 1.4888 -0.4091 -0.3416
                      }
                    }
                  }
                }
                JOINT LeftHandThumb1
                {
                  OFFSET 1.833 -1.3875 1.3896
                  CHANNELS 3 Zrotation Xrotation Yrotation
                  JOINT LeftHandThumb2
                  {
                    OFFSET 3.4129 -1.121 2.5732
                    CHANNELS 3 Zrotation Xrotation Yrotation
                    JOINT LeftHandThumb3
                    {
                      OFFSET 2.2474 -0.804199 1.6192
                      CHANNELS 3 Zrotation Xrotation Yrotation
                      End Site
                      {
                        OFFSET 1.6527 -0.5689 1.1317
                      }
                    }
                  }
                }
              }
            }
          }
        }
        JOINT RightShoulder
        {
          OFFSET -2.2086 21.1115 7.2329
          CHANNELS 3 Zrotation Xrotation Yrotation
          JOINT RightArm
          {
            OFFSET -13.1216 3.0287 -4.9007
            CHANNELS 3 Zrotation Xrotation Yrotation
            JOINT RightForeArm
            {
              OFFSET -27.4081 -0.0973053 -0.2375
              CHANNELS 3 Zrotation Xrotation Yrotation
              JOINT RightHand
              {
                OFFSET -22.8641 0.0664063 -0.1369
                CHANNELS 3 Zrotation Xrotation Yrotation
                JOINT RightHandIndex1
                {
                  OFFSET -8.8614 0.774994 2.4612
                  CHANNELS 3 Zrotation Xrotation Yrotation
                  JOINT RightHandIndex2
                  {
                    OFFSET -3.3146 -0.808304 0.5841
                    CHANNELS 3 Zrotation Xrotation Yrotation
                    JOINT RightHandIndex3
                    {
                      OFFSET -2.2628 -0.552002 0.3989
                      CHANNELS 3 Zrotation Xrotation Yrotation
                      End Site
                      {
                        OFFSET -1.6102 -0.4807 0.2612
                      }
                    }
                  }
                }
                JOINT RightHandMiddle1
                {
                  OFFSET -8.9937 0.894989 0.2143
                  CHANNELS 3 Zrotation Xrotation Yrotation
                  JOINT RightHandMiddle2
                  {
                    OFFSET -4.0984 0.0113983 -0.0242
                    CHANNELS 3 Zrotation Xrotation Yrotation
                    JOINT RightHandMiddle3
                    {
                      OFFSET -2.2716 0.00691223 -0.0138001
                      CHANNELS 3 Zrotation Xrotation Yrotation
                      End Site
                      {
                        OFFSET -2.0404 -0.1441 0.0027
                      }
                    }
                  }
                }
                JOINT RightHandRing1
                {
                  OFFSET -8.5234 0.597198 -2.0164
                  CHANNELS 3 Zrotation Xrotation Yrotation
                  JOINT RightHandRing2
                  {
                    OFFSET -3.7188 -0.188309 -0.2328
                    CHANNELS 3 Zrotation Xrotation Yrotation
                    JOINT RightHandRing3
                    {
                      OFFSET -2.1191 -0.106598 -0.1332
                      CHANNELS 3 Zrotation Xrotation Yrotation
                      End Site
                      {
                        OFFSET -1.8737 -0.2304 -0.0886
                      }
                    }
                  }
                }
                JOINT RightHandPinky1
                {
                  OFFSET -7.9094 -0.601105 -3.4825
                  CHANNELS 3 Zrotation Xrotation Yrotation
                  JOINT RightHandPinky2
                  {
                    OFFSET -2.2874 -0.477005 -0.6314
                    CHANNELS 3 Zrotation Xrotation Yrotation
                    JOINT RightHandPinky3
                    {
                      OFFSET -1.6774 -0.349396 -0.4633
                      CHANNELS 3 Zrotation Xrotation Yrotation
                      End Site
                      {
                        OFFSET -1.4888 -0.4091 -0.3416
                      }
                    }
                  }
                }
                JOINT RightHandThumb1
                {
                  OFFSET -1.833 -1.38751 1.3896
                  CHANNELS 3 Zrotation Xrotation Yrotation
                  JOINT RightHandThumb2
                  {
                    OFFSET -3.41299 -1.12099 2.5732
                    CHANNELS 3 Zrotation Xrotation Yrotation
                    JOINT RightHandThumb3
                    {
                      OFFSET -2.24741 -0.804108 1.6192
                      CHANNELS 3 Zrotation Xrotation Yrotation
                      End Site
                      {
                        OFFSET -1.6527 -0.5689 1.1317
                      }
                    }
                  }
                }
              }
            }
          }
        }
      }
    }
  }
  JOINT RightUpLeg
  {
    OFFSET -9.1966 3.8861 -0.7581
    CHANNELS 3 Zrotation Xrotation Yrotation
    JOINT RightLeg
    {
      OFFSET -0.7359 -41.0265 0
      CHANNELS 3 Zrotation Xrotation Yrotation
      JOINT RightFoot
      {
        OFFSET 0 -40.2855 0
        CHANNELS 3 Zrotation Xrotation Yrotation
        JOINT RightToeBase
        {
          OFFSET 0 -5.6122 11.7359
          CHANNELS 3 Zrotation Xrotation Yrotation
          End Site
          {
            OFFSET 0 0 7.8731
          }
        }
      }
    }
  }
  JOINT LeftUpLeg
  {
    OFFSET 9.1965 3.8864 -0.7581
    CHANNELS 3 Zrotation Xrotation Yrotation
    JOINT LeftLeg
    {
      OFFSET 0.7359 -41.0268 0
      CHANNELS 3 Zrotation Xrotation Yrotation
      JOINT LeftFoot
      {
        OFFSET 0 -40.2855 0
        CHANNELS 3 Zrotation Xrotation Yrotation
        JOINT LeftToeBase
        {
          OFFSET 0 -5.6122 11.7359
          CHANNELS 3 Zrotation Xrotation Yrotation
          End Site
          {
            OFFSET 0 0 7.8731
          }
        }
      }
    }
  }
}
MOTION
Frames:	4
Frame Time:	0.0333333
5.84602e-005 68.8428 3.50346 0 0 -0 0 0 -0 0 0 -0 0 0 -0 0 0 -0 0 0 -0 0 0 -0 0 0 -0 0 0 -0 0 0 -0 0 0 -0 0 0 -0 0 0 -0 0 0 -0 -0.0146107 -8.87603e-005 -2.63497e-007 2.99804e-018 -2.42657e-020 -1.42182e-022 0 0 -0 -0.0187562 -0.001176 5.858e-005 5.06224e-018 3.88251e-019 1.21329e-020 0 0 -0 -0.012269 -0.00324817 0.000675346 -1.74678e-018 3.88251e-019 -0 0 0 -0 0 0 -0 0 0 -0 0 0 -0 0 0 -0 0 0 -0 0 0 -0 0 0 -0 0 0 -0 0 0 -0 0 0 -0 0.0149955 -9.10982e-005 2.64101e-007 -9.69331e-018 1.21329e-020 -4.7394e-023 0 0 -0 0.0189956 -0.00119102 -5.96516e-005 -5.41541e-019 0 2.42657e-020 0 0 -0 0.0122698 -0.00324857 -0.000673756 -2.00796e-019 0 -1.94126e-019 0 0 -0 0 0 -0 0 0 -0 3.39842 1.33031 -0.0637918 -5.65207e-008 0.834868 -0.000436188 -3.39935 -2.16518 -0.0642563 -8.89002e-024 -1.18485e-023 -1.48106e-024 -3.39844 1.35642 0.0640283 -3.18788e-007 0.782166 -0.000588827 3.39931 -2.13858 0.0634662 1.1399e-023 0 -0 
39.5029 18.9895 59.6807 89.3125 -89.7452 -90.4204 0.257364 0.853117 -0.120569 0.516613 1.70593 -0.245009 0.516613 1.70593 -0.245009 -6.56412e-005 21.9978 2.63751e-005 -1.52334e-007 -24.0027 -1.08133e-008 -26.2466 28.2997 5.7385 10.2915 -16.4114 -69.4704 1.16016 -5.50428 -69.1361 53.0776 -31.4895 26.6722 1.59028e-015 -1.59028e-015 3.18055e-015 -1.59028e-015 3.18055e-015 3.18055e-015 -7.95139e-016 1.59028e-015 3.18055e-015 1.59028e-015 -1.59028e-015 3.18055e-015 -0.0146321 -8.72157e-005 2.70738e-006 -3.18055e-015 -1.59028e-015 3.18055e-015 1.59028e-015 -1.59028e-015 3.18055e-015 -0.0187661 -0.00117301 5.73801e-005 -7.95139e-016 0 -0 1.59028e-015 -1.59028e-015 3.18055e-015 -0.0123122 -0.00325892 0.00068039 2.64834e-031 4.77083e-015 -3.18055e-015 1.59028e-015 -1.59028e-015 3.18055e-015 -1.59028e-015 3.18055e-015 3.18055e-015 -7.95139e-016 1.59028e-015 3.18055e-015 23.2922 17.4213 -10.2409 -6.90015 -5.25038 80.4137 -1.13779 -5.36065 64.8084 -50.9884 -18.0425 -20.7154 3.18055e-015 -3.18055e-015 3.18055e-015 -1.36274e-007 -2.93604e-007 2.77282e-007 5.29669e-031 -9.54166e-015 3.18055e-015 3.18055e-015 -3.18055e-015 3.18055e-015 0.0149937 -9.14796e-005 5.51142e-006 1.7886e-007 -1.66079e-007 3.3983e-007 3.18055e-015 -3.18055e-015 3.18055e-015 0.0190241 -0.00119329 -6.24565e-005 -3.18055e-015 -9.54166e-015 3.18055e-015 3.18055e-015 -3.18055e-015 3.18055e-015 0.012256 -0.00324461 -0.000674522 1.59028e-015 -3.18055e-015 -0 3.18055e-015 -3.18055e-015 3.18055e-015 -1.36274e-007 -2.93604e-007 2.77282e-007 5.29669e-031 -9.54166e-015 3.18055e-015 -92.097 -44.205 -110.219 -144.784 71.5538 145.648 -10.7779 43.8087 5.9586 -2.38232e-007 -2.67119e-007 -7.7278e-007 92.0949 -44.2011 110.205 144.79 71.5504 -145.669 10.7693 43.8055 -5.96451 7.6765e-006 -7.39124e-008 -1.4166e-006 
39.5029 18.9895 59.6807 89.3108 -89.7452 -90.4221 0.256802 1.06403 -0.123134 0.516025 2.12753 -0.251101 0.516025 2.1275 -0.251101 2.88484e-005 21.6086 -1.17144e-005 -1.91447e-007 -24.0027 3.66126e-007 -26.2196 27.5359 6.15476 10.3017 -16.4959 -69.7758 1.19242 -5.56561 -70.3847 53.5261 -30.7966 27.123 3.18055e-015 -1.59028e-015 3.18055e-015 2.38542e-015 0 6.36111e-015 7.95139e-016 0 6.36111e-015 3.18055e-015 -1.59028e-015 3.18055e-015 -0.0146222 -8.64791e-005 2.40794e-006 -2.38542e-015 3.18055e-015 -0 3.18055e-015 -1.59028e-015 3.18055e-015 -0.0187846 -0.00117801 5.69974e-005 7.95139e-016 1.59028e-015 -0 3.18055e-015 -1.59028e-015 3.18055e-015 -0.0122687 -0.00324815 0.000677795 -2.38542e-015 0 3.18055e-015 3.18055e-015 -1.59028e-015 3.18055e-015 2.38542e-015 0 6.36111e-015 7.95139e-016 0 6.36111e-015 23.3154 16.7063 -10.5933 -6.90013 -5.25039 80.4137 -1.16519 -5.40273 66.0812 -51.22 -17.3228 -21.0859 -4.77083e-015 6.36111e-015 3.18055e-015 -3.18055e-015 3.18055e-015 3.18055e-015 0 0 -0 -4.77083e-015 6.36111e-015 3.18055e-015 0.015038 -9.4687e-005 -6.29444e-006 -4.77083e-015 0 -6.36111e-015 -4.77083e-015 6.36111e-015 3.18055e-015 0.0189867 -0.00118953 -6.14982e-005 3.18055e-015 6.36111e-015 3.18055e-015 -4.77083e-015 6.36111e-015 3.18055e-015 0.012177 -0.00322297 -0.000668662 -0 -3.18055e-015 -0 -4.77083e-015 6.36111e-015 3.18055e-015 -3.18055e-015 3.18055e-015 3.18055e-015 0 0 -0 -92.097 -44.205 -110.219 -144.784 71.5538 145.648 -10.7779 43.8087 5.95863 -9.44556e-007 4.31995e-006 7.84274e-007 92.0949 -44.2011 110.205 144.79 71.5505 -145.668 10.7693 43.8055 -5.96449 7.15501e-007 -4.17407e-006 2.00042e-006 
39.5029 18.9895 59.6807 89.3108 -89.7452 -90.4221 0.256342 1.27496 -0.12566 0.515673 2.54938 -0.257122 0.515673 2.54937 -0.257122 5.13038e-005 21.2209 -2.30704e-005 -1.7931e-007 -24.0027 -2.93966e-008 -26.1865 26.7713 6.56892 10.3113 -16.5804 -70.0814 1.2234 -5.62777 -71.6359 53.9655 -30.1001 27.5647 -7.95139e-016 -3.18055e-015 -0 2.8663e-007 8.69852e-007 -5.92388e-007 1.76556e-031 -1.59028e-015 6.36111e-015 -7.95139e-016 -3.18055e-015 -0 -0.0146117 -8.79635e-005 1.63132e-006 -7.95139e-016 3.18055e-015 3.18055e-015 -7.95139e-016 -3.18055e-015 -0 -0.0188044 -0.00117953 5.97179e-005 0 1.59028e-015 -0 -7.95139e-016 -3.18055e-015 -0 -0.0122625 -0.00325016 0.000678653 -7.95139e-016 -1.59028e-015 -0 -7.95139e-016 -3.18055e-015 -0 2.8663e-007 8.69852e-007 -5.92388e-007 1.76556e-031 -1.59028e-015 6.36111e-015 23.3338 15.9904 -10.9444 -6.90015 -5.25038 80.4137 -1.19167 -5.44549 67.3568 -51.446 -16.6011 -21.4523 -1.35874e-007 -2.94755e-007 2.7637e-007 -8.82362e-007 -1.28242e-006 1.00624e-006 -6.87582e-008 -7.80864e-007 9.28348e-007 -1.35874e-007 -2.94755e-007 2.7637e-007 0.0149835 -9.11944e-005 1.06549e-006 -2.71754e-007 -5.89437e-007 5.52818e-007 -1.35874e-007 -2.94755e-007 2.7637e-007 0.0189629 -0.00119245 -5.70118e-005 -2.7175e-007 -5.89418e-007 5.52841e-007 -1.35874e-007 -2.94755e-007 2.7637e-007 0.0123331 -0.00326581 -0.000675681 -4.73631e-007 -3.9843e-007 1.7713e-007 -1.35874e-007 -2.94755e-007 2.7637e-007 -8.82362e-007 -1.28242e-006 1.00624e-006 -6.87582e-008 -7.80864e-007 9.28348e-007 -92.097 -44.205 -110.219 -144.784 71.5538 145.648 -10.7779 43.8087 5.95863 -9.44556e-007 4.31995e-006 7.84274e-007 92.0949 -44.2011 110.205 144.79 71.5505 -145.668 10.7693 43.8055 -5.96449 7.15501e-007 -4.17407e-006 2.00042e-006 
